<svg xmlns="http://www.w3.org/2000/svg" viewBox="0 0 128 128" role="img" aria-label="CanopyProof mark">
  <defs>
    <linearGradient id="cp-a" x1="18" x2="108" y1="24" y2="112" gradientUnits="userSpaceOnUse">
      <stop stop-color="#39DDF2"/>
      <stop offset="0.48" stop-color="#24D6C3"/>
      <stop offset="1" stop-color="#0B3554"/>
    </linearGradient>
    <linearGradient id="cp-b" x1="21" x2="96" y1="35" y2="94" gradientUnits="userSpaceOnUse">
      <stop stop-color="#6EE787"/>
      <stop offset="1" stop-color="#24D6C3"/>
    </linearGradient>
  </defs>
  <rect width="128" height="128" rx="32" fill="#04111F"/>
  <path d="M108 64c0 24.3-19.7 44-44 44S20 88.3 20 64c0-20.2 13.7-37.2 32.3-42.3C41.5 31.2 34.8 45.1 34.8 60.4c0 23.7 19.2 42.8 42.8 42.8 6.9 0 13.4-1.6 19.1-4.5A43.8 43.8 0 0 0 108 64Z" fill="url(#cp-a)"/>
  <path d="M26 73.5c18.4 6.2 39.6 2 54.1-12.6 8.2-8.2 12.8-18.3 13.9-28.9 4.1 22.6-3.4 47.4-23.8 62.4C53.7 89.2 37.4 82.2 26 73.5Z" fill="url(#cp-b)"/>
  <circle cx="67" cy="37" r="12" fill="#39DDF2"/>
</svg>
